<svg width="71" height="70" viewBox="0 0 71 70" fill="none" xmlns="http://www.w3.org/2000/svg">
<path d="M4.93945 57.8436V40.2709L20.3131 33.6836L35.6868 40.2758V57.8436L20.3131 64.4261L4.93945 57.8436Z" stroke="white" stroke-width="2.4" stroke-linecap="round" stroke-linejoin="round"/>
<path d="M4.93945 40.2371L20.3131 46.8245L35.6868 40.2371M20.3131 16.2324L35.682 22.8246L51.0557 16.2373" stroke="white" stroke-width="2.4" stroke-linecap="round" stroke-linejoin="round"/>
<path d="M35.6821 40.2363L51.0558 46.8237L66.4295 40.2363" stroke="white" stroke-width="2.4" stroke-linecap="round" stroke-linejoin="round"/>
<path d="M20.3135 46.8338V64.4308M51.0657 46.8338V64.4308M35.6823 22.8243V40.4164M20.3232 33.6737V16.101L35.692 9.51367L51.0657 16.101V33.6737L35.692 40.2611L20.3232 33.6737ZM35.6823 57.8435V40.2708L51.056 33.6834L66.4297 40.2756V57.8435L51.056 64.426L35.6823 57.8435Z" stroke="white" stroke-width="2.4" stroke-linecap="round" stroke-linejoin="round"/>
</svg>
