<svg width="150" height="86" viewBox="0 0 150 86" fill="none" xmlns="http://www.w3.org/2000/svg">
<path d="M97.317 35.3261C95.0218 41.536 91.0684 46.2158 85.2196 49.4281C74.7843 55.1578 59.5172 52.6325 52.4258 43.9871C51.0091 42.2581 51.3494 41.2237 52.8215 39.9552C63.7541 30.5878 74.6735 21.193 85.5797 11.7709C88.1519 9.55785 88.148 9.55004 85.3977 7.68825C71.8441 -1.49185 54.9268 3.78515 49.07 18.9838C47.6731 22.6215 46.7234 22.7933 44.1551 19.8933C41.757 17.1845 39.3312 14.5031 36.941 11.7865C35.5362 10.194 33.886 9.63591 32.1923 11.1347C30.4986 12.6335 31.5196 14.0113 32.6909 15.3344C37.0716 20.2719 41.4879 25.182 45.7499 30.2209C47.131 31.8563 48.0926 31.8212 49.6161 30.4824C55.3977 25.4084 61.2584 20.3968 67.0914 15.3696C67.4181 15.0552 67.7673 14.7643 68.1361 14.4992C69.0028 13.9527 69.905 13.8903 70.5738 14.7529C71.1832 15.5335 70.8073 16.3141 70.1424 16.8957C67.7681 19.0112 65.4175 21.1266 63.0194 23.2031C58.706 26.9449 54.3833 30.6736 50.0514 34.3894C47.6771 36.4385 46.9648 36.4463 44.907 34.1318C39.8364 28.4723 34.7988 22.7868 29.7942 17.0752C27.3605 14.2884 27.4674 10.7795 29.9011 8.62501C32.5524 6.28315 36.7313 6.57978 39.1967 9.31976C41.4286 11.7982 43.6209 14.3118 46.1535 17.1767C47.9303 13.2463 49.9446 9.86619 52.8809 7.13791C62.5208 -1.79629 77.6771 -2.41688 88.2667 5.68987C93.1143 9.40562 93.0431 9.59297 88.4606 13.5195C77.8552 22.5903 67.3526 31.7782 56.759 40.8412C55.3779 42.0122 55.5995 42.7342 56.8263 43.7803C68.7851 53.9947 89.8021 49.6076 94.3648 33.3434C94.4836 32.9101 94.531 32.4574 94.6616 32.028C95.4293 29.53 96.3791 29.2373 98.1994 31.0796C100.867 33.7844 103.407 36.6181 106.078 39.3229C107.634 40.9037 109.197 43.0348 111.836 41.3135C113.395 40.2948 112.628 37.9959 110.123 35.3301C105.77 30.7166 101.417 26.1148 97.1785 21.4194C95.9517 20.065 95.1998 20.2016 93.9058 21.3374C87.7087 26.7705 81.3929 32.0866 75.1286 37.4221C74.2026 38.2027 73.2608 39.1317 72.1171 37.8476C70.9023 36.4815 72.224 35.7204 73.0589 35.0022C80.1187 28.9016 87.2299 22.8557 94.2817 16.7474C95.552 15.6467 96.4899 15.8457 97.5306 16.9737C103.178 23.0899 108.896 29.1397 114.476 35.3183C115.55 36.5152 116.103 38.0815 116.015 39.6778C115.927 41.2742 115.205 42.772 114.005 43.8466C111.769 45.8919 108.409 45.8645 105.845 43.5422C102.96 40.9388 100.249 38.1637 97.317 35.3261Z" fill="white"/>
<path d="M1.5829 85.9697H1.55916C1.15781 85.9812 0.768207 85.8353 0.475884 85.5638C0.183562 85.2923 0.0124091 84.9175 0 84.5217V63.5581C0.0124091 63.1622 0.183562 62.7874 0.475884 62.5159C0.768207 62.2444 1.15781 62.0984 1.55916 62.11H1.5829C1.98425 62.0984 2.37386 62.2444 2.66618 62.5159C2.9585 62.7874 3.12965 63.1622 3.14206 63.5581V71.5165C3.12636 71.6941 3.15028 71.873 3.21215 72.0406C3.27401 72.2082 3.37232 72.3603 3.50017 72.4864C3.62801 72.6125 3.7823 72.7095 3.95219 72.7705C4.12208 72.8315 4.30346 72.8551 4.48358 72.8396L22.1923 72.8162C23.055 72.8162 23.514 72.3596 23.514 71.5594V63.5581C23.5265 63.1622 23.6976 62.7874 23.9899 62.5159C24.2822 62.2444 24.6718 62.0984 25.0732 62.11H25.1088C25.5102 62.0984 25.8998 62.2444 26.1921 62.5159C26.4844 62.7874 26.6556 63.1622 26.668 63.5581V84.5217C26.6556 84.9175 26.4844 85.2923 26.1921 85.5638C25.8998 85.8353 25.5102 85.9812 25.1088 85.9697H25.0732C24.6718 85.9812 24.2822 85.8353 23.9899 85.5638C23.6976 85.2923 23.5265 84.9175 23.514 84.5217V77.3126C23.514 76.5125 23.0946 75.9973 22.2319 75.9973L4.4717 76.0207C3.60902 76.0207 3.14206 76.4617 3.14206 77.2619V84.5217C3.12965 84.9175 2.9585 85.2923 2.66618 85.5638C2.37386 85.8353 1.98425 85.9812 1.5829 85.9697Z" fill="white"/>
<path d="M53.0509 68.443L36.1296 84.3872C35.7339 84.7189 34.3726 86.2997 32.8135 85.9484C31.555 85.6557 31.2622 85.0975 31.2622 83.0211V63.849C31.2622 62.8889 31.7925 62.1083 32.8253 62.1083C34.0125 62.1083 34.4082 62.8889 34.4082 63.849V79.5044C34.4082 80.4919 35.0335 80.6246 35.8487 79.9415L53.7909 62.9825C54.2697 62.5376 55.2116 61.8116 56.2523 62.1083C57.4791 62.44 57.6651 63.1699 57.6651 64.4774V84.2115C57.6651 85.1834 57.2456 85.9679 56.0821 85.9679C54.9187 85.9679 54.4992 85.1873 54.4992 84.2115V68.9894C54.5507 68.0566 53.783 67.7092 53.0509 68.443Z" fill="white"/>
<path d="M62.2715 84.3883V63.6628C62.2715 62.8002 62.7582 62.1016 64.0087 62.1016C65.2592 62.1016 65.6391 62.8041 65.6391 63.6628V84.3883C65.6391 85.2548 65.0693 85.9495 63.8821 85.9495C62.6949 85.9495 62.2715 85.2665 62.2715 84.3883ZM87.4238 85.4421C86.6324 86.4179 85.1365 85.8832 83.7871 85.2275L64.2264 74.9038C62.9363 74.2832 62.8849 73.405 64.1631 72.7727L84.3015 62.5973C85.37 62.0625 86.7234 61.8557 87.3803 62.6558C87.547 62.8397 87.6691 63.0586 87.7374 63.296C87.8057 63.5333 87.8184 63.7828 87.7746 64.0257C87.7307 64.2686 87.6315 64.4984 87.4843 64.6979C87.3372 64.8974 87.146 65.0613 86.9252 65.1772L70.0238 73.3113C69.9137 73.3405 69.8164 73.4047 69.747 73.494C69.6777 73.5832 69.6401 73.6926 69.6401 73.805C69.6401 73.9175 69.6777 74.0268 69.747 74.1161C69.8164 74.2053 69.9137 74.2695 70.0238 74.2988L86.8302 82.6592C87.8314 83.1744 88.4567 84.1892 87.4238 85.4538V85.4421Z" fill="white"/>
<path d="M126.969 78.1433L126.945 84.1034C126.945 85.1143 126.522 85.9574 125.362 85.9574H125.152C123.965 85.9574 123.589 85.1377 123.589 84.1229V63.9438C123.589 62.929 124.535 62.1094 125.703 62.1094H138.663C141.9 62.1094 144.581 62.8158 146.708 64.2288C148.9 65.6235 149.997 67.3565 150 69.4277C150.003 71.4989 148.905 73.2423 146.708 74.6579C144.547 76.0474 141.865 76.7421 138.663 76.7421H128.516C127.535 76.7655 126.929 77.3276 126.969 78.1433ZM139.359 65.0328H128.516C126.933 65.0328 126.933 65.8563 126.933 66.8673V71.7617C126.933 72.7727 126.933 73.5923 128.536 73.5923H139.347C141.371 73.5923 143.026 73.1565 144.314 72.2848C145.635 71.391 146.292 70.8445 146.292 69.5253C146.292 68.206 145.631 67.2732 144.314 66.3755C142.834 65.4414 141.099 64.9769 139.343 65.0445L139.359 65.0328Z" fill="white"/>
<path d="M112.687 62.1406H98.8363C95.3697 62.1406 92.5601 64.8143 92.5601 68.1163V79.9778C92.5913 81.5887 93.2685 83.1216 94.4434 84.2409C95.6183 85.3603 97.1951 85.9747 98.8284 85.9496H112.679C114.315 85.9767 115.895 85.3622 117.072 84.241C118.248 83.1197 118.926 81.5836 118.955 79.97V68.0968C118.963 64.7947 116.153 62.1406 112.687 62.1406ZM115.651 78.8888C115.651 81.4805 114.214 82.8856 111.492 82.8856L100.016 82.8115C97.293 82.8115 95.8565 81.4805 95.8565 78.9084V69.3262C95.8565 66.7346 97.3009 65.2553 100.023 65.2553L111.5 65.3295C114.222 65.3295 115.655 66.7346 115.655 69.3262L115.651 78.8888Z" fill="white"/>
</svg>
