<svg width="87" height="52" viewBox="0 0 87 52" fill="none" xmlns="http://www.w3.org/2000/svg">
<path d="M68.5058 34.9853C66.2367 41.1352 62.3285 45.7699 56.5463 48.9511C46.2299 54.6256 31.1368 52.1247 24.1262 43.5627C22.7256 41.8503 23.0621 40.826 24.5174 39.5697C35.3254 30.2926 46.1204 20.9885 56.9023 11.6573C59.4452 9.46563 59.4413 9.45789 56.7223 7.61407C43.3232 -1.47746 26.5987 3.74863 20.8087 18.8007C19.4277 22.4033 18.4888 22.5733 15.9498 19.7013C13.579 17.0187 11.1808 14.3631 8.8179 11.6728C7.42909 10.0957 5.79771 9.54293 4.12331 11.0273C2.4489 12.5116 3.45824 13.8761 4.61624 15.1865C8.947 20.0763 13.313 24.939 17.5264 29.9293C18.8917 31.5489 19.8424 31.5141 21.3486 30.1883C27.0642 25.1632 32.8581 20.2 38.6247 15.2213C38.9477 14.9099 39.2928 14.6219 39.6575 14.3593C40.5142 13.8181 41.4062 13.7563 42.0674 14.6105C42.6698 15.3836 42.2982 16.1567 41.6409 16.7327C39.2936 18.8277 36.9698 20.9228 34.599 22.9792C30.3348 26.6849 26.0614 30.3777 21.7789 34.0576C19.4316 36.0869 18.7274 36.0947 16.6931 33.8025C11.6803 28.1976 6.70012 22.5669 1.75254 16.9105C-0.653441 14.1505 -0.547811 10.6755 1.85817 8.54179C4.47932 6.22252 8.61056 6.51629 11.0478 9.22983C13.2543 11.6844 15.4216 14.1737 17.9254 17.011C19.682 13.1185 21.6733 9.77099 24.5761 7.06904C34.1061 -1.77896 49.0897 -2.39356 59.5587 5.63496C64.3511 9.31487 64.2806 9.50041 59.7503 13.389C49.2658 22.3723 38.8829 31.4716 28.41 40.4472C27.0447 41.6068 27.2637 42.3219 28.4765 43.3578C40.2991 53.4737 61.0766 49.1289 65.5873 33.0216C65.7047 32.5926 65.7516 32.1442 65.8807 31.719C66.6397 29.2451 67.5786 28.9552 69.3782 30.7797C72.015 33.4584 74.5266 36.2648 77.1673 38.9435C78.7048 40.509 80.2501 42.6195 82.8595 40.9149C84.4009 39.906 83.6419 37.6292 81.1655 34.9891C76.8621 30.4202 72.5588 25.8628 68.3688 21.2127C67.1561 19.8714 66.4128 20.0067 65.1335 21.1315C59.007 26.5122 52.7632 31.777 46.5703 37.061C45.6548 37.8341 44.7237 38.7541 43.5931 37.4824C42.3921 36.1295 43.6987 35.3757 44.5242 34.6645C51.5035 28.6228 58.5337 22.6352 65.5051 16.5858C66.7609 15.4957 67.6881 15.6929 68.717 16.81C74.2997 22.8671 79.9527 28.8586 85.4689 34.9776C86.5313 36.1629 87.0781 37.7141 86.991 39.295C86.9038 40.8759 86.1897 42.3593 85.0033 43.4235C82.793 45.449 79.4715 45.422 76.9365 43.122C74.0845 40.5438 71.4047 37.7955 68.5058 34.9853Z" fill="#64AABE"/>
</svg>
