<svg width="70" height="70" viewBox="0 0 70 70" fill="none" xmlns="http://www.w3.org/2000/svg">
<path d="M32.7891 49.7689V52.7227M32.7891 49.7689C37.6835 49.7689 41.6504 46.4607 41.6504 42.3844C41.6504 38.3082 37.6835 35 32.7891 35C27.8947 35 23.9277 31.6918 23.9277 27.6156C23.9277 23.5393 27.8947 20.2311 32.7891 20.2311M32.7891 49.7689C27.8947 49.7689 23.9277 46.4607 23.9277 42.3844M32.7891 17.2773V20.2311M32.7891 20.2311C37.6835 20.2311 41.6504 23.5393 41.6504 27.6156" stroke="white" stroke-width="3" stroke-linecap="round"/>
<path d="M18.0203 9.41508C22.5087 6.81842 27.6039 5.45494 32.7892 5.46293C49.1029 5.46293 62.327 18.687 62.327 35.0007C62.327 51.3144 49.1029 64.5384 32.7892 64.5384C16.4755 64.5384 3.25146 51.3144 3.25146 35.0007C3.25146 29.6219 4.68995 24.5739 7.20362 20.2318" stroke="white" stroke-width="3" stroke-linecap="round"/>
</svg>
