<svg width="22" height="22" viewBox="0 0 22 22" fill="none" xmlns="http://www.w3.org/2000/svg">
<path d="M11.0011 11.8303C12.3792 11.8303 13.4964 10.7132 13.4964 9.33509C13.4964 7.957 12.3792 6.83984 11.0011 6.83984C9.62302 6.83984 8.50586 7.957 8.50586 9.33509C8.50586 10.7132 9.62302 11.8303 11.0011 11.8303Z" stroke="white" stroke-width="1.8" stroke-linecap="round" stroke-linejoin="round"/>
<path d="M11.0002 2.68164C9.23544 2.68164 7.54297 3.38268 6.2951 4.63055C5.04724 5.87842 4.34619 7.57089 4.34619 9.33564C4.34619 10.9093 4.68055 11.939 5.59382 13.0785L11.0002 19.3166L16.4066 13.0785C17.3198 11.939 17.6542 10.9093 17.6542 9.33564C17.6542 7.57089 16.9531 5.87842 15.7053 4.63055C14.4574 3.38268 12.7649 2.68164 11.0002 2.68164Z" stroke="white" stroke-width="1.8" stroke-linecap="round" stroke-linejoin="round"/>
</svg>
