<svg width="22" height="22" viewBox="0 0 22 22" fill="none" xmlns="http://www.w3.org/2000/svg">
<path d="M18.6256 14.7407V17.0256C18.6264 17.2377 18.583 17.4476 18.498 17.642C18.413 17.8364 18.2884 18.0108 18.1321 18.1542C17.9758 18.2976 17.7912 18.4068 17.5903 18.4747C17.3894 18.5427 17.1765 18.5679 16.9652 18.5488C14.6215 18.2942 12.3702 17.4933 10.3923 16.2106C8.55201 15.0413 6.99181 13.481 5.82244 11.6408C4.53525 9.65384 3.73421 7.39161 3.48421 5.0374C3.46518 4.82678 3.49021 4.61451 3.55771 4.41409C3.62521 4.21368 3.7337 4.02951 3.87627 3.87333C4.01885 3.71714 4.19238 3.59235 4.38583 3.5069C4.57927 3.42146 4.78839 3.37723 4.99987 3.37703H7.28478C7.65441 3.37339 8.01275 3.50428 8.29301 3.7453C8.57327 3.98633 8.75632 4.32104 8.80806 4.68704C8.9045 5.41827 9.08335 6.13623 9.3412 6.82725C9.44368 7.09985 9.46585 7.39612 9.40511 7.68095C9.34436 7.96578 9.20324 8.22722 8.99846 8.4343L8.03119 9.40158C9.11542 11.3084 10.6942 12.8872 12.601 13.9714L13.5683 13.0041C13.7754 12.7994 14.0368 12.6582 14.3216 12.5975C14.6065 12.5367 14.9027 12.5589 15.1753 12.6614C15.8664 12.9192 16.5843 13.0981 17.3155 13.1945C17.6855 13.2467 18.0234 13.4331 18.265 13.7182C18.5065 14.0032 18.6348 14.3671 18.6256 14.7407Z" stroke="white" stroke-width="1.8" stroke-linecap="round" stroke-linejoin="round"/>
</svg>
