<svg width="50" height="50" viewBox="0 0 50 50" fill="none" xmlns="http://www.w3.org/2000/svg">
<rect width="50" height="50" rx="14" fill="white"/>
<path d="M40.6789 32.5504C39.3843 30.2698 36.0494 27.5293 34.6726 26.3368C34.2958 26.0103 34.2555 25.4454 34.5984 25.0843C37.2259 22.3206 39.3274 19.1451 40.0507 17.2262C40.3699 16.3785 39.7092 15.4829 38.7784 15.4829H36.0746C35.1834 15.4829 34.6618 15.796 34.4132 16.2946C32.2296 20.6747 30.3564 22.5703 29.0452 23.6782C28.3111 24.2987 27.1663 23.7846 27.1663 22.8404C27.1663 21.0209 27.1663 18.669 27.1663 17.0012C27.1663 16.1924 26.4905 15.5379 25.657 15.5379L20.7176 15.4829C20.0959 15.4829 19.7407 16.1719 20.1139 16.655L20.9294 17.8009C21.2363 18.198 21.402 18.681 21.402 19.1768L21.3977 24.3375C21.3977 25.2353 20.2861 25.6739 19.6261 25.0449C17.3935 22.9165 15.4562 18.5703 14.7588 16.4921C14.5571 15.8905 13.9815 15.4843 13.3287 15.4829L10.6653 15.4766C9.66601 15.4766 8.93548 16.4039 9.20709 17.3376C11.6407 25.6993 16.6341 33.6541 25.5331 34.5165C26.4098 34.6012 27.1663 33.9101 27.1663 33.0546V30.3424C27.1663 29.5645 27.7895 28.896 28.5906 28.8763C28.6187 28.8756 28.6468 28.8756 28.6749 28.8756C31.0286 28.8756 33.6647 32.2288 34.5869 33.7972C34.852 34.2486 35.3477 34.5236 35.8837 34.5236H39.4664C40.5118 34.5236 41.1825 33.4383 40.6789 32.5504Z" fill="#9B7396"/>
</svg>
